inDegrees=yes
name=ik_S50_A11_T02
DataType=double
version=3
OpenSimVersion=4.3-2021-08-27-4bc7ad9
endheader
time	pelvis_tilt	pelvis_list	pelvis_rotation	pelvis_tx	pelvis_ty	pelvis_tz	hip_flexion_r	hip_adduction_r	hip_rotation_r	knee_angle_r	knee_angle_r_beta	ankle_angle_r	subtalar_angle_r	mtp_angle_r	hip_flexion_l	hip_adduction_l	hip_rotation_l	knee_angle_l	knee_angle_l_beta	ankle_angle_l	subtalar_angle_l	mtp_angle_l	lumbar_extension	lumbar_bending	lumbar_rotation	arm_flex_r	arm_add_r	arm_rot_r	elbow_flex_r	pro_sup_r	wrist_flex_r	wrist_dev_r	arm_flex_l	arm_add_l	arm_rot_l	elbow_flex_l	pro_sup_l	wrist_flex_l	wrist_dev_l
0	0	0	0	0	0.9399999999999999	0	0	0	0	0	0	0	0	0	0	0	0	0	0	0	0	0	0	0	0	0	0	0	0	89.99999999963507	0	0	0	0	0	0	89.99999999869995	0	0
0.02	0.2864632516989828	0.1288429599556188	29.96235043569026	0	0.9399999999999999	0	1.798335392682321	-0.8483045411848034	-0.6046924258428954	2.801158279880406	0.04888943485341393	0	0	0	1.798335392682321	-0.8483045411848034	-0.6046924258428954	2.801158279880406	0.04888943485341393	0	0	0	1.011555828883852	0.006755515804307589	13.25991582909479	4.850535000655237	-4.567817214222772	-9.609960667072041	9.222032929156981	132.0388575343961	0	0	5.687574727810305	-7.792601653077103	-8.85108791721972	6.297415032190623	126.6571275666421	0	0
0.04	0.2817884403621734	0.1373818059031084	30.17440552744726	0	0.9399999999999999	0	3.978315463764894	-1.915846498823627	-1.380525679524141	5.458703311849276	0.09527234568128866	0	0	0	3.978315463764894	-1.915846498823627	-1.380525679524141	5.458703311849276	0.09527234568128866	0	0	0	0.9937660732161504	-0.001569824956622906	13.0373939956384	4.871662108384316	-4.576528780478277	-9.590139390244881	9.193076083860458	132.0793570908554	0	0	5.712768103178307	-7.774015466983386	-8.831673833833321	6.256344522139339	126.6774637734703	0	0
0.06	0.2748289511831754	0.1528097024042608	30.33857369626273	0	0.9399999999999999	0	5.396034299725419	-2.529138577639703	-1.877795282666169	6.829459877081847	0.1191965609879255	0	0	0	5.396034299725419	-2.529138577639703	-1.877795282666169	6.829459877081847	0.1191965609879255	0	0	0	0.9874019127168395	-0.004427500838000874	12.85172441664764	4.863826427354336	-4.592594301349654	-9.590921082607982	9.258602876771727	132.0580068874131	0	0	5.68920082586185	-7.762086260160494	-8.866263091468543	6.294175075645093	126.6767982471917	0	0
0.08	0.2770093179525622	0.1601084065287428	30.43924232423548	0	0.9399999999999999	0	6.704090961771316	-3.05891895666388	-2.325609551331356	8.051327638036231	0.1405221764405505	0	0	0	6.704090961771316	-3.05891895666388	-2.325609551331356	8.051327638036231	0.1405221764405505	0	0	0	0.9818903662392812	-0.008011461976609787	12.73674162745554	4.869301933843802	-4.594390484397413	-9.597239529465504	9.250288669689665	132.0808117949298	0	0	5.68491192733178	-7.765926495852891	-8.895199401873018	6.302358838370809	126.7025109857412	0	0
0.1	0.2699106514036835	0.1622172918008571	30.55035957270711	0	0.9399999999999999	0	7.906994069820962	-3.525071328330416	-2.727436862902641	9.185573612050035	0.1603185032145814	0	0	0	7.906994069820962	-3.525071328330416	-2.727436862902641	9.185573612050035	0.1603185032145814	0	0	0	0.9648300170072348	-0.006814464794794668	12.61983639234066	4.893111199041727	-4.619860911580171	-9.626297091227045	9.256107310944829	132.154512964973	0	0	5.704101908691343	-7.763407619490759	-8.916257643087201	6.336708909469163	126.7366234362397	0	0
0.12	0.2768906568461884	0.1705501608044523	30.73922993983488	0	0.9399999999999999	0	8.907080340486591	-3.89581767600229	-3.054067429087181	10.14609991668586	0.1770828497824905	0	0	0	8.907080340486591	-3.89581767600229	-3.054067429087181	10.14609991668586	0.1770828497824905	0	0	0	0.9770821194299465	-0.01410274585994606	12.43386225692492	4.857396430449318	-4.61417543221289	-9.636626532589279	9.236184260109773	132.1593973873469	0	0	5.701540067573394	-7.758487519193218	-8.939451205702184	6.296119308598856	126.7544233807584	0	0
0.14	0.280139097066352	0.171813161576336	30.76410457213346	0	0.9399999999999999	0	9.134035369764987	-3.974851876864315	-3.127198737806751	10.35009356892443	0.180643210667222	0	0	0	9.134035369764987	-3.974851876864315	-3.127198737806751	10.35009356892443	0.180643210667222	0	0	0	0.977169334783656	-0.01387690626485356	12.4077709724637	4.837778539443092	-4.60490813268391	-9.658622746401418	9.253756596677535	132.1745487851271	0	0	5.697145957317358	-7.743842906550404	-8.946918643348114	6.294782273172319	126.7580595844659	0	0
0.16	0.2872301899882433	0.1714547684622166	30.90100531383635	0	0.9399999999999999	0	9.898888592714878	-4.247773717160544	-3.371495534897696	11.08861340026734	0.193532813315429	0	0	0	9.898888592714878	-4.247773717160544	-3.371495534897696	11.08861340026734	0.193532813315429	0	0	0	0.9713542021381562	-0.01413159630657341	12.27091024087573	4.847017170975999	-4.607895993399911	-9.685718299171899	9.229153745887443	132.205211437836	0	0	5.724522906248327	-7.767715461693135	-8.97216111359436	6.27397621971473	126.770083740759	0	0
0.18	0.293126111902718	0.1746653329735719	31.0228769502762	0	0.9399999999999999	0	10.74533541935457	-4.53577213346015	-3.636744493943615	11.90046321769204	0.2077022656612048	0	0	0	10.74533541935457	-4.53577213346015	-3.636744493943615	11.90046321769204	0.2077022656612048	0	0	0	0.9645735581270766	-0.01281793093336239	12.14796814714874	4.840949995934583	-4.605829336153383	-9.719749536505368	9.231838344733848	132.2340589027418	0	0	5.727774141592582	-7.779797004868374	-8.995662331743096	6.277745519913074	126.7798452532969	0	0
0.2	0.3033385645757946	0.1855323106071517	31.1027856612034	0	0.9399999999999999	0	11.52414010891778	-4.80502986647935	-3.879601955971145	12.67282686903259	0.2211825543998228	0	0	0	11.52414010891778	-4.80502986647935	-3.879601955971145	12.67282686903259	0.2211825543998228	0	0	0	0.9700949808957989	-0.01052839866201328	12.07250156003913	4.796284871530911	-4.602591316772012	-9.743606330928289	9.23649056048141	132.2335820570305	0	0	5.717870206328937	-7.772516221141307	-8.987350191826598	6.290811748361057	126.7634475486769	0	0
0.22	0.3004703217363858	0.1900451661560112	31.10877507438791	0	0.9399999999999999	0	11.60519028499934	-4.831434578754296	-3.904410309540191	12.75072099596145	0.2225420633826979	0	0	0	11.60519028499934	-4.831434578754296	-3.904410309540191	12.75072099596145	0.2225420633826979	0	0	0	0.9688770840879271	-0.005018833063260735	12.06640837870614	4.807377850444954	-4.61639079087514	-9.787232424442758	9.224453560163731	132.2834144405627	0	0	5.714851285796619	-7.757412815862122	-9.007679240628928	6.287843762314098	126.7692735684507	0	0
0.24	0.3019722076087509	0.1923433496445749	31.15060608630257	0	0.9399999999999999	0	11.79277908621524	-4.892430792839891	-3.961949848441287	12.93145074801925	0.2256963926124195	0	0	0	11.79277908621524	-4.892430792839891	-3.961949848441287	12.93145074801925	0.2256963926124195	0	0	0	0.9685512088252063	-0.003481213643149123	12.02913162963319	4.789919530411166	-4.621913474390343	-9.793558987800198	9.216644688964948	132.3150892294307	0	0	5.73104393446627	-7.779773137904588	-9.015545422648151	6.28673028264122	126.7733930295428	0	0
0.26	0.2942522336896181	0.1918709709324175	31.22511750769799	0	0.9399999999999999	0	12.39091045428584	-5.098024448493377	-4.146612149515722	13.5396680236959	0.236311786640487	0	0	0	12.39091045428584	-5.098024448493377	-4.146612149515722	13.5396680236959	0.236311786640487	0	0	0	0.9545517468522543	-0.005250684195991457	11.95274648697599	4.818471779269378	-4.622670869225237	-9.809713337167492	9.192511579786979	132.382569665265	0	0	5.752061721282551	-7.777584932379658	-9.03336295932959	6.318729205797435	126.8028734592164	0	0
0.28	0.3018977185966845	0.2017655176496037	31.26391349391464	0	0.9399999999999999	0	12.56667114615685	-5.153308418880673	-4.19963245213502	13.71013480671781	0.2392869932695023	0	0	0	12.56667114615685	-5.153308418880673	-4.19963245213502	13.71013480671781	0.2392869932695023	0	0	0	0.9637163156914028	-0.0004533812750740822	11.91219133034838	4.794074423797765	-4.625939549007838	-9.766857227105163	9.189777396041963	132.3120023799554	0	0	5.735553444546062	-7.787995437140741	-9.038768032062137	6.281143802016764	126.7560006729701	0	0
0.3	0.3104413965639172	0.2018251918269998	31.30753027508754	0	0.9399999999999999	0	12.73722434017627	-5.208284017762305	-4.251329328242902	13.87863503729243	0.2422278770833989	0	0	0	12.73722434017627	-5.208284017762305	-4.251329328242902	13.87863503729243	0.2422278770833989	0	0	0	0.9684363287238276	-0.003963894194762514	11.87899452077864	4.77803012283143	-4.624228514751328	-9.734498594159509	9.229312104421306	132.2481502802739	0	0	5.753620682945869	-7.792004196296278	-9.009473097731545	6.284439161679179	126.7111449352772	0	0
0.32	0.3017351454730212	0.2007210446476265	31.34609477805854	0	0.9399999999999999	0	12.86045558213149	-5.246584824826819	-4.28828981542382	13.99802062131447	0.2443115486039999	0	0	0	12.86045558213149	-5.246584824826819	-4.28828981542382	13.99802062131447	0.2443115486039999	0	0	0	0.9587750471442485	-0.0003255969647668756	11.85619435576273	4.801137336787239	-4.628527945205911	-9.755333744970772	9.188835144388994	132.3378697103936	0	0	5.781535609551136	-7.789360196855434	-9.006709205133841	6.286365278165831	126.7497451368968	0	0
